<?xml version="1.0" encoding="UTF-8" standalone="no"?><!-- Generator: Gravit.io --><svg xmlns="http://www.w3.org/2000/svg" xmlns:xlink="http://www.w3.org/1999/xlink" style="isolation:isolate" viewBox="503.5 361.5 497.14 241" width="497.14pt" height="241pt"><defs><clipPath id="_clipPath_Of3TCEkm7vitDuwvo49FTfHlaj0j7YGK"><rect x="503.5" y="361.5" width="497.14" height="241"/></clipPath></defs><g clip-path="url(#_clipPath_Of3TCEkm7vitDuwvo49FTfHlaj0j7YGK)"><path d=" M 702.36 450.81 C 712.69 439.5 723.78 428.9 735.53 419.07 C 741.48 414.09 747.65 409.38 754.01 404.95 C 759.69 401 765.54 397.3 771.54 393.86 C 777.03 390.72 782.67 387.84 788.45 385.25 C 793.8 382.85 799.28 380.72 804.85 378.86 C 810.13 377.1 815.5 375.62 820.93 374.43 C 826.14 373.29 831.41 372.42 836.71 371.85 C 841.91 371.28 847.14 371 852.37 371 C 857.91 371 863.44 371.33 868.94 371.98 C 874.53 372.64 880.09 373.61 885.57 374.9 C 891.29 376.24 896.94 377.91 902.47 379.89 C 908.33 381.99 914.07 384.39 919.68 387.09 C 922.25 388.33 924.79 389.63 927.31 390.99 C 929.91 392.39 932.49 393.85 935.04 395.37 C 936.97 396.52 938.89 397.71 940.79 398.92 C 942.75 400.18 944.69 401.46 946.61 402.78 C 953.43 407.44 960.02 412.45 966.35 417.77 C 978.57 428.06 990.03 439.23 1000.64 451.19 C 990.31 462.5 979.22 473.1 967.47 482.93 C 961.52 487.91 955.35 492.62 948.99 497.05 C 943.31 501 937.46 504.7 931.46 508.14 C 925.97 511.28 920.33 514.16 914.55 516.75 C 909.2 519.15 903.72 521.28 898.15 523.14 C 892.87 524.9 887.5 526.38 882.07 527.57 C 876.86 528.71 871.59 529.58 866.29 530.15 C 861.09 530.72 855.86 531 850.63 531 C 845.09 531 839.56 530.67 834.06 530.02 C 828.47 529.36 822.91 528.39 817.43 527.1 C 811.71 525.76 806.06 524.09 800.53 522.11 C 794.67 520.01 788.93 517.61 783.32 514.91 C 780.75 513.67 778.21 512.37 775.69 511.01 C 773.09 509.61 770.51 508.15 767.96 506.63 C 766.03 505.48 764.11 504.29 762.21 503.08 C 760.25 501.82 758.31 500.54 756.39 499.22 C 749.57 494.56 742.98 489.55 736.65 484.23 C 724.43 473.94 712.97 462.77 702.36 450.81 Z  M 759.52 451.16 C 760.08 450.69 760.63 450.22 761.19 449.75 C 766.24 445.53 771.47 441.53 776.87 437.77 C 781.58 434.49 786.43 431.42 791.41 428.57 C 795.76 426.08 800.23 423.8 804.81 421.75 C 808.96 419.89 813.2 418.24 817.52 416.8 C 821.44 415.49 825.44 414.39 829.49 413.5 C 833.3 412.67 837.16 412.03 841.05 411.61 C 844.8 411.2 848.57 411 852.34 411 C 856.33 411 860.31 411.24 864.27 411.7 C 868.36 412.19 872.42 412.9 876.43 413.84 C 880.68 414.84 884.87 416.08 888.99 417.55 C 893.52 419.17 897.97 421.04 902.31 423.13 C 904.34 424.11 906.35 425.13 908.33 426.2 C 910.43 427.33 912.5 428.5 914.55 429.73 C 916.12 430.66 917.68 431.63 919.22 432.61 C 920.84 433.65 922.44 434.71 924.03 435.79 C 929.75 439.71 935.28 443.91 940.59 448.38 C 941.56 449.19 942.52 450.01 943.48 450.84 C 942.92 451.31 942.37 451.78 941.81 452.25 C 936.76 456.47 931.53 460.47 926.13 464.23 C 921.42 467.51 916.57 470.58 911.59 473.43 C 907.24 475.92 902.77 478.2 898.19 480.25 C 894.04 482.11 889.8 483.76 885.48 485.2 C 881.56 486.51 877.56 487.61 873.51 488.5 C 869.7 489.33 865.84 489.97 861.95 490.39 C 858.2 490.8 854.43 491 850.66 491 C 846.67 491 842.69 490.76 838.73 490.3 C 834.64 489.81 830.58 489.1 826.57 488.16 C 822.32 487.16 818.13 485.92 814.01 484.45 C 809.48 482.83 805.03 480.96 800.69 478.87 C 798.66 477.89 796.65 476.87 794.67 475.8 C 792.57 474.67 790.5 473.5 788.45 472.27 C 786.88 471.34 785.32 470.37 783.78 469.39 C 782.16 468.35 780.56 467.29 778.97 466.21 C 773.25 462.29 767.72 458.09 762.41 453.62 C 761.44 452.81 760.48 451.99 759.52 451.16 Z " fill-rule="evenodd" fill="rgb(0,0,0)"/><path d=" M 787.5 451 C 787.5 415.677 816.177 387 851.5 387 C 886.823 387 915.5 415.677 915.5 451 C 915.5 486.323 886.823 515 851.5 515 C 816.177 515 787.5 486.323 787.5 451 Z  M 815.5 451 C 815.5 431.131 831.631 415 851.5 415 C 871.369 415 887.5 431.131 887.5 451 C 887.5 470.869 871.369 487 851.5 487 C 831.631 487 815.5 470.869 815.5 451 Z " fill-rule="evenodd" fill="rgb(0,0,0)"/><circle vector-effect="non-scaling-stroke" cx="833" cy="451" r="23" fill="rgb(0,0,0)"/><path d=" M 752 444 L 796 413 L 801 486 L 752 460 L 752 444 Z " fill="rgb(0,0,0)"/><path d=" M 904 413 L 973 463 L 900 500 L 904 413 Z " fill="rgb(0,0,0)"/></g></svg>