<?xml version="1.0" encoding="UTF-8" standalone="no"?><!-- Generator: Gravit.io --><svg xmlns="http://www.w3.org/2000/svg" xmlns:xlink="http://www.w3.org/1999/xlink" style="isolation:isolate" viewBox="377.89 577.712 760.61 268.788" width="760.61pt" height="268.788pt"><defs><clipPath id="_clipPath_TT8YM8j9fTz6p0jIhQilL7e7KhjK5fN9"><rect x="377.89" y="577.712" width="760.61" height="268.788"/></clipPath></defs><g clip-path="url(#_clipPath_TT8YM8j9fTz6p0jIhQilL7e7KhjK5fN9)"><path d=" M 975.043 631.053 L 975.043 631.053 Q 979.301 631.053 982.055 633.683 L 982.055 633.683 L 982.055 633.683 Q 984.81 636.312 984.81 640.569 L 984.81 640.569 L 984.81 758.27 L 984.81 758.27 Q 984.81 762.528 982.055 765.282 L 982.055 765.282 L 982.055 765.282 Q 979.301 768.037 975.043 768.037 L 975.043 768.037 L 975.043 768.037 Q 970.786 768.037 968.157 765.282 L 968.157 765.282 L 968.157 765.282 Q 965.527 762.528 965.527 758.27 L 965.527 758.27 L 965.527 749.756 L 965.527 749.756 Q 957.263 759.022 945.493 764.281 L 945.493 764.281 L 945.493 764.281 Q 933.723 769.54 919.949 769.54 L 919.949 769.54 L 919.949 769.54 Q 902.169 769.54 888.02 762.027 L 888.02 762.027 L 888.02 762.027 Q 873.87 754.514 865.857 740.114 L 865.857 740.114 L 865.857 740.114 Q 857.843 725.715 857.843 705.681 L 857.843 705.681 L 857.843 640.569 L 857.843 640.569 Q 857.843 636.563 860.598 633.808 L 860.598 633.808 L 860.598 633.808 Q 863.353 631.053 867.359 631.053 L 867.359 631.053 L 867.359 631.053 Q 871.617 631.053 874.371 633.808 L 874.371 633.808 L 874.371 633.808 Q 877.126 636.563 877.126 640.569 L 877.126 640.569 L 877.126 705.681 L 877.126 705.681 Q 877.126 727.969 889.522 739.614 L 889.522 739.614 L 889.522 739.614 Q 901.918 751.258 921.953 751.258 L 921.953 751.258 L 921.953 751.258 Q 934.223 751.258 944.115 746.5 L 944.115 746.5 L 944.115 746.5 Q 954.007 741.742 959.767 733.353 L 959.767 733.353 L 959.767 733.353 Q 965.527 724.963 965.527 714.696 L 965.527 714.696 L 965.527 640.569 L 965.527 640.569 Q 965.527 636.312 968.157 633.683 L 968.157 633.683 L 968.157 633.683 Q 970.786 631.053 975.043 631.053 L 975.043 631.053 Z  M 1033.894 640.82 L 1033.894 640.82 Q 1033.894 636.563 1036.648 633.808 L 1036.648 633.808 L 1036.648 633.808 Q 1039.403 631.053 1043.661 631.053 L 1043.661 631.053 L 1043.661 631.053 Q 1047.918 631.053 1050.547 633.808 L 1050.547 633.808 L 1050.547 633.808 Q 1053.177 636.563 1053.177 640.82 L 1053.177 640.82 L 1053.177 758.27 L 1053.177 758.27 Q 1053.177 762.528 1050.547 765.282 L 1050.547 765.282 L 1050.547 765.282 Q 1047.918 768.037 1043.661 768.037 L 1043.661 768.037 L 1043.661 768.037 Q 1039.403 768.037 1036.648 765.282 L 1036.648 765.282 L 1036.648 765.282 Q 1033.894 762.528 1033.894 758.27 L 1033.894 758.27 L 1033.894 640.82 Z  M 1043.661 577.712 L 1043.661 577.712 Q 1049.17 577.712 1053.177 581.468 L 1053.177 581.468 L 1053.177 581.468 Q 1057.183 585.225 1057.183 591.235 L 1057.183 591.235 L 1057.183 591.235 Q 1057.183 596.995 1053.177 601.002 L 1053.177 601.002 L 1053.177 601.002 Q 1049.17 605.009 1043.41 605.009 L 1043.41 605.009 L 1043.41 605.009 Q 1037.65 605.009 1033.768 601.002 L 1033.768 601.002 L 1033.768 601.002 Q 1029.887 596.995 1029.887 591.235 L 1029.887 591.235 L 1029.887 591.235 Q 1029.887 585.225 1033.894 581.468 L 1033.894 581.468 L 1033.894 581.468 Q 1037.901 577.712 1043.661 577.712 L 1043.661 577.712 Z " fill="rgb(22,160,133)"/><path d=" M 563.591 631.053 L 563.591 631.053 Q 567.848 631.053 570.603 633.683 L 570.603 633.683 L 570.603 633.683 Q 573.357 636.312 573.357 640.569 L 573.357 640.569 L 573.357 758.27 L 573.357 758.27 Q 573.357 762.528 570.603 765.282 L 570.603 765.282 L 570.603 765.282 Q 567.848 768.037 563.591 768.037 L 563.591 768.037 L 563.591 768.037 Q 559.333 768.037 556.704 765.282 L 556.704 765.282 L 556.704 765.282 Q 554.074 762.528 554.074 758.27 L 554.074 758.27 L 554.074 749.756 L 554.074 749.756 Q 545.81 759.022 534.04 764.281 L 534.04 764.281 L 534.04 764.281 Q 522.27 769.54 508.497 769.54 L 508.497 769.54 L 508.497 769.54 Q 490.716 769.54 476.567 762.027 L 476.567 762.027 L 476.567 762.027 Q 462.418 754.514 454.404 740.114 L 454.404 740.114 L 454.404 740.114 Q 446.39 725.715 446.39 705.681 L 446.39 705.681 L 446.39 640.569 L 446.39 640.569 Q 446.39 636.563 449.145 633.808 L 449.145 633.808 L 449.145 633.808 Q 451.9 631.053 455.907 631.053 L 455.907 631.053 L 455.907 631.053 Q 460.164 631.053 462.919 633.808 L 462.919 633.808 L 462.919 633.808 Q 465.673 636.563 465.673 640.569 L 465.673 640.569 L 465.673 705.681 L 465.673 705.681 Q 465.673 727.969 478.069 739.614 L 478.069 739.614 L 478.069 739.614 Q 490.466 751.258 510.5 751.258 L 510.5 751.258 L 510.5 751.258 Q 522.771 751.258 532.663 746.5 L 532.663 746.5 L 532.663 746.5 Q 542.555 741.742 548.315 733.353 L 548.315 733.353 L 548.315 733.353 Q 554.074 724.963 554.074 714.696 L 554.074 714.696 L 554.074 640.569 L 554.074 640.569 Q 554.074 636.312 556.704 633.683 L 556.704 633.683 L 556.704 633.683 Q 559.333 631.053 563.591 631.053 L 563.591 631.053 Z  M 683.295 629.551 L 683.295 629.551 Q 701.075 629.551 715.225 637.063 L 715.225 637.063 L 715.225 637.063 Q 729.374 644.576 737.387 658.976 L 737.387 658.976 L 737.387 658.976 Q 745.401 673.375 745.401 693.41 L 745.401 693.41 L 745.401 758.521 L 745.401 758.521 Q 745.401 762.528 742.646 765.282 L 742.646 765.282 L 742.646 765.282 Q 739.892 768.037 735.885 768.037 L 735.885 768.037 L 735.885 768.037 Q 731.628 768.037 728.873 765.282 L 728.873 765.282 L 728.873 765.282 Q 726.118 762.528 726.118 758.521 L 726.118 758.521 L 726.118 693.41 L 726.118 693.41 Q 726.118 671.122 713.722 659.477 L 713.722 659.477 L 713.722 659.477 Q 701.326 647.832 681.292 647.832 L 681.292 647.832 L 681.292 647.832 Q 669.021 647.832 659.129 652.59 L 659.129 652.59 L 659.129 652.59 Q 649.237 657.348 643.477 665.737 L 643.477 665.737 L 643.477 665.737 Q 637.717 674.127 637.717 684.394 L 637.717 684.394 L 637.717 758.521 L 637.717 758.521 Q 637.717 762.778 635.088 765.408 L 635.088 765.408 L 635.088 765.408 Q 632.458 768.037 628.201 768.037 L 628.201 768.037 L 628.201 768.037 Q 623.944 768.037 621.189 765.408 L 621.189 765.408 L 621.189 765.408 Q 618.434 762.778 618.434 758.521 L 618.434 758.521 L 618.434 640.82 L 618.434 640.82 Q 618.434 636.563 621.189 633.808 L 621.189 633.808 L 621.189 633.808 Q 623.944 631.053 628.201 631.053 L 628.201 631.053 L 628.201 631.053 Q 632.458 631.053 635.088 633.808 L 635.088 633.808 L 635.088 633.808 Q 637.717 636.563 637.717 640.82 L 637.717 640.82 L 637.717 649.334 L 637.717 649.334 Q 645.981 640.069 657.751 634.81 L 657.751 634.81 L 657.751 634.81 Q 669.521 629.551 683.295 629.551 L 683.295 629.551 Z  M 791.981 640.82 L 791.981 640.82 Q 791.981 636.563 794.735 633.808 L 794.735 633.808 L 794.735 633.808 Q 797.49 631.053 801.747 631.053 L 801.747 631.053 L 801.747 631.053 Q 806.005 631.053 808.634 633.808 L 808.634 633.808 L 808.634 633.808 Q 811.264 636.563 811.264 640.82 L 811.264 640.82 L 811.264 758.27 L 811.264 758.27 Q 811.264 762.528 808.634 765.282 L 808.634 765.282 L 808.634 765.282 Q 806.005 768.037 801.747 768.037 L 801.747 768.037 L 801.747 768.037 Q 797.49 768.037 794.735 765.282 L 794.735 765.282 L 794.735 765.282 Q 791.981 762.528 791.981 758.27 L 791.981 758.27 L 791.981 640.82 Z  M 801.747 577.712 L 801.747 577.712 Q 807.257 577.712 811.264 581.468 L 811.264 581.468 L 811.264 581.468 Q 815.27 585.225 815.27 591.235 L 815.27 591.235 L 815.27 591.235 Q 815.27 596.995 811.264 601.002 L 811.264 601.002 L 811.264 601.002 Q 807.257 605.009 801.497 605.009 L 801.497 605.009 L 801.497 605.009 Q 795.737 605.009 791.855 601.002 L 791.855 601.002 L 791.855 601.002 Q 787.974 596.995 787.974 591.235 L 787.974 591.235 L 787.974 591.235 Q 787.974 585.225 791.981 581.468 L 791.981 581.468 L 791.981 581.468 Q 795.988 577.712 801.747 577.712 L 801.747 577.712 Z " fill="rgb(26,188,156)"/><defs><filter id="uXf2VHrwZuHalyu8zMisIPqGXibcT71F" x="-200%" y="-200%" width="400%" height="400%" filterUnits="objectBoundingBox" color-interpolation-filters="sRGB"><feGaussianBlur xmlns="http://www.w3.org/2000/svg" in="SourceGraphic" stdDeviation="17.174436251356113"/><feOffset xmlns="http://www.w3.org/2000/svg" dx="0" dy="0" result="pf_100_offsetBlur"/><feFlood xmlns="http://www.w3.org/2000/svg" flood-color="#E95F7A" flood-opacity="0.86"/><feComposite xmlns="http://www.w3.org/2000/svg" in2="pf_100_offsetBlur" operator="in" result="pf_100_dropShadow"/><feBlend xmlns="http://www.w3.org/2000/svg" in="SourceGraphic" in2="pf_100_dropShadow" mode="normal"/></filter></defs><g filter="url(#uXf2VHrwZuHalyu8zMisIPqGXibcT71F)"><path d=" M 1071.5 733.35 L 1071.5 725.85 L 1086.5 725.85 L 1086.5 733.35 L 1086.5 794.5 L 437.39 794.5 L 429.89 794.5 L 429.89 779.5 L 437.39 779.5 L 1071.5 779.5 L 1071.5 733.35 Z " fill="rgb(233,95,122)"/></g></g></svg>